<mxfile host="Electron" agent="Mozilla/5.0 (Windows NT 10.0; Win64; x64) AppleWebKit/537.36 (KHTML, like Gecko) draw.io/26.1.1 Chrome/132.0.6834.210 Electron/34.3.3 Safari/537.36" version="26.1.1">
  <diagram name="Page-1" id="q0A9ikqKJdquw8Hac-C8">
    <mxGraphModel dx="1221" dy="1992" grid="1" gridSize="10" guides="1" tooltips="1" connect="1" arrows="1" fold="1" page="1" pageScale="1" pageWidth="827" pageHeight="1169" math="0" shadow="0">
      <root>
        <mxCell id="0" />
        <mxCell id="1" parent="0" />
        <mxCell id="JstbfSH8RtNPnBw-VqSM-1" value="&lt;font style=&quot;font-size: 32px;&quot;&gt;MLD&lt;/font&gt;" style="text;html=1;align=center;verticalAlign=middle;resizable=0;points=[];autosize=1;strokeColor=none;fillColor=none;" vertex="1" parent="1">
          <mxGeometry x="350" y="-40" width="90" height="50" as="geometry" />
        </mxCell>
        <mxCell id="JstbfSH8RtNPnBw-VqSM-2" value="Chef_cuisiniers" style="swimlane;whiteSpace=wrap;html=1;" vertex="1" parent="1">
          <mxGeometry x="100" y="77.5" width="200" height="120" as="geometry" />
        </mxCell>
        <mxCell id="JstbfSH8RtNPnBw-VqSM-3" value="&lt;b&gt;&lt;u&gt;id&lt;/u&gt;&lt;/b&gt;&lt;div&gt;&lt;b&gt;&lt;u&gt;&lt;br&gt;&lt;/u&gt;&lt;/b&gt;&lt;/div&gt;" style="text;html=1;align=center;verticalAlign=middle;resizable=0;points=[];autosize=1;strokeColor=none;fillColor=none;" vertex="1" parent="JstbfSH8RtNPnBw-VqSM-2">
          <mxGeometry x="85" y="25" width="30" height="40" as="geometry" />
        </mxCell>
        <mxCell id="JstbfSH8RtNPnBw-VqSM-4" value="Nom&lt;div&gt;Datenaissance&lt;/div&gt;&lt;div&gt;Annéeexpérience&lt;/div&gt;&lt;div&gt;Typechef&lt;/div&gt;" style="text;html=1;align=center;verticalAlign=middle;resizable=0;points=[];autosize=1;strokeColor=none;fillColor=none;" vertex="1" parent="JstbfSH8RtNPnBw-VqSM-2">
          <mxGeometry x="40" y="45" width="120" height="70" as="geometry" />
        </mxCell>
        <mxCell id="JstbfSH8RtNPnBw-VqSM-5" value="Style_cuisines" style="swimlane;whiteSpace=wrap;html=1;" vertex="1" parent="1">
          <mxGeometry x="603" y="362.5" width="200" height="105" as="geometry" />
        </mxCell>
        <mxCell id="JstbfSH8RtNPnBw-VqSM-6" value="&lt;b&gt;&lt;u&gt;id&lt;/u&gt;&lt;/b&gt;" style="text;html=1;align=center;verticalAlign=middle;resizable=0;points=[];autosize=1;strokeColor=none;fillColor=none;" vertex="1" parent="JstbfSH8RtNPnBw-VqSM-5">
          <mxGeometry x="85" y="30" width="30" height="30" as="geometry" />
        </mxCell>
        <mxCell id="JstbfSH8RtNPnBw-VqSM-7" value="Nomstylecuisine" style="text;html=1;align=center;verticalAlign=middle;resizable=0;points=[];autosize=1;strokeColor=none;fillColor=none;" vertex="1" parent="JstbfSH8RtNPnBw-VqSM-5">
          <mxGeometry x="45" y="60" width="110" height="30" as="geometry" />
        </mxCell>
        <mxCell id="JstbfSH8RtNPnBw-VqSM-8" value="Restaurants" style="swimlane;whiteSpace=wrap;html=1;" vertex="1" parent="1">
          <mxGeometry x="193" y="362.5" width="200" height="140" as="geometry" />
        </mxCell>
        <mxCell id="JstbfSH8RtNPnBw-VqSM-9" value="&lt;div&gt;&lt;b&gt;&lt;u&gt;#id_Style_cuisine&lt;/u&gt;&lt;/b&gt;&lt;/div&gt;" style="text;html=1;align=center;verticalAlign=middle;resizable=0;points=[];autosize=1;strokeColor=none;fillColor=none;" vertex="1" parent="JstbfSH8RtNPnBw-VqSM-8">
          <mxGeometry x="35" y="45" width="120" height="30" as="geometry" />
        </mxCell>
        <mxCell id="JstbfSH8RtNPnBw-VqSM-10" value="Nomrestaurant&lt;div&gt;Adresserestaurant&lt;/div&gt;&lt;div&gt;Nombrecouvert&lt;/div&gt;" style="text;html=1;align=center;verticalAlign=middle;resizable=0;points=[];autosize=1;strokeColor=none;fillColor=none;" vertex="1" parent="JstbfSH8RtNPnBw-VqSM-8">
          <mxGeometry x="35" y="75" width="120" height="60" as="geometry" />
        </mxCell>
        <mxCell id="JstbfSH8RtNPnBw-VqSM-11" value="&lt;b&gt;&lt;u&gt;id&lt;/u&gt;&lt;/b&gt;" style="text;html=1;align=center;verticalAlign=middle;resizable=0;points=[];autosize=1;strokeColor=none;fillColor=none;" vertex="1" parent="JstbfSH8RtNPnBw-VqSM-8">
          <mxGeometry x="80" y="25" width="30" height="30" as="geometry" />
        </mxCell>
        <mxCell id="JstbfSH8RtNPnBw-VqSM-12" value="Type_cuisines" style="swimlane;whiteSpace=wrap;html=1;" vertex="1" parent="1">
          <mxGeometry x="613" y="85" width="200" height="105" as="geometry" />
        </mxCell>
        <mxCell id="JstbfSH8RtNPnBw-VqSM-13" value="&lt;b&gt;&lt;u&gt;id&lt;/u&gt;&lt;/b&gt;" style="text;html=1;align=center;verticalAlign=middle;resizable=0;points=[];autosize=1;strokeColor=none;fillColor=none;" vertex="1" parent="JstbfSH8RtNPnBw-VqSM-12">
          <mxGeometry x="85" y="30" width="30" height="30" as="geometry" />
        </mxCell>
        <mxCell id="JstbfSH8RtNPnBw-VqSM-14" value="Nomtypecuisine" style="text;html=1;align=center;verticalAlign=middle;resizable=0;points=[];autosize=1;strokeColor=none;fillColor=none;" vertex="1" parent="JstbfSH8RtNPnBw-VqSM-12">
          <mxGeometry x="45" y="60" width="110" height="30" as="geometry" />
        </mxCell>
        <mxCell id="JstbfSH8RtNPnBw-VqSM-15" value="Chef_cuisiniers_Type_cuisines" style="swimlane;whiteSpace=wrap;html=1;" vertex="1" parent="1">
          <mxGeometry x="373" y="90" width="190" height="100" as="geometry" />
        </mxCell>
        <mxCell id="JstbfSH8RtNPnBw-VqSM-16" value="&lt;b&gt;&lt;u&gt;#id_Chef_cuisiniers&lt;/u&gt;&lt;/b&gt;" style="text;html=1;align=center;verticalAlign=middle;resizable=0;points=[];autosize=1;strokeColor=none;fillColor=none;" vertex="1" parent="JstbfSH8RtNPnBw-VqSM-15">
          <mxGeometry x="25" y="30" width="140" height="30" as="geometry" />
        </mxCell>
        <mxCell id="JstbfSH8RtNPnBw-VqSM-17" value="&lt;b&gt;&lt;u&gt;#id_Type_cuisines&lt;/u&gt;&lt;/b&gt;" style="text;html=1;align=center;verticalAlign=middle;resizable=0;points=[];autosize=1;strokeColor=none;fillColor=none;" vertex="1" parent="JstbfSH8RtNPnBw-VqSM-15">
          <mxGeometry x="30" y="55" width="130" height="30" as="geometry" />
        </mxCell>
        <mxCell id="JstbfSH8RtNPnBw-VqSM-18" value="" style="endArrow=none;html=1;rounded=0;entryX=1;entryY=0.5;entryDx=0;entryDy=0;" edge="1" parent="1" source="JstbfSH8RtNPnBw-VqSM-16" target="JstbfSH8RtNPnBw-VqSM-2">
          <mxGeometry width="50" height="50" relative="1" as="geometry">
            <mxPoint x="293" y="250" as="sourcePoint" />
            <mxPoint x="343" y="200" as="targetPoint" />
          </mxGeometry>
        </mxCell>
        <mxCell id="JstbfSH8RtNPnBw-VqSM-19" value="" style="endArrow=none;html=1;rounded=0;entryX=0;entryY=0.5;entryDx=0;entryDy=0;exitX=0.981;exitY=0.499;exitDx=0;exitDy=0;exitPerimeter=0;" edge="1" parent="1" source="JstbfSH8RtNPnBw-VqSM-17" target="JstbfSH8RtNPnBw-VqSM-12">
          <mxGeometry width="50" height="50" relative="1" as="geometry">
            <mxPoint x="553" y="260" as="sourcePoint" />
            <mxPoint x="603" y="210" as="targetPoint" />
          </mxGeometry>
        </mxCell>
        <mxCell id="JstbfSH8RtNPnBw-VqSM-20" value="Type_cuisines_Style_cuisines" style="swimlane;whiteSpace=wrap;html=1;" vertex="1" parent="1">
          <mxGeometry x="618" y="230" width="190" height="100" as="geometry" />
        </mxCell>
        <mxCell id="JstbfSH8RtNPnBw-VqSM-21" value="&lt;b&gt;&lt;u&gt;#id_Type_cuisines&lt;/u&gt;&lt;/b&gt;" style="text;html=1;align=center;verticalAlign=middle;resizable=0;points=[];autosize=1;strokeColor=none;fillColor=none;" vertex="1" parent="JstbfSH8RtNPnBw-VqSM-20">
          <mxGeometry x="30" y="30" width="130" height="30" as="geometry" />
        </mxCell>
        <mxCell id="JstbfSH8RtNPnBw-VqSM-22" value="&lt;b&gt;&lt;u&gt;#id_Style_cuisines&lt;/u&gt;&lt;/b&gt;" style="text;html=1;align=center;verticalAlign=middle;resizable=0;points=[];autosize=1;strokeColor=none;fillColor=none;" vertex="1" parent="JstbfSH8RtNPnBw-VqSM-20">
          <mxGeometry x="30" y="60" width="130" height="30" as="geometry" />
        </mxCell>
        <mxCell id="JstbfSH8RtNPnBw-VqSM-23" value="" style="endArrow=none;html=1;rounded=0;entryX=0.5;entryY=1;entryDx=0;entryDy=0;exitX=0;exitY=0.651;exitDx=0;exitDy=0;exitPerimeter=0;" edge="1" parent="1" source="JstbfSH8RtNPnBw-VqSM-21" target="JstbfSH8RtNPnBw-VqSM-12">
          <mxGeometry width="50" height="50" relative="1" as="geometry">
            <mxPoint x="523" y="300" as="sourcePoint" />
            <mxPoint x="573" y="250" as="targetPoint" />
          </mxGeometry>
        </mxCell>
        <mxCell id="JstbfSH8RtNPnBw-VqSM-24" value="" style="endArrow=none;html=1;rounded=0;entryX=0.028;entryY=0.472;entryDx=0;entryDy=0;entryPerimeter=0;exitX=0.5;exitY=0;exitDx=0;exitDy=0;" edge="1" parent="1" source="JstbfSH8RtNPnBw-VqSM-5" target="JstbfSH8RtNPnBw-VqSM-22">
          <mxGeometry width="50" height="50" relative="1" as="geometry">
            <mxPoint x="483" y="320" as="sourcePoint" />
            <mxPoint x="533" y="270" as="targetPoint" />
          </mxGeometry>
        </mxCell>
        <mxCell id="JstbfSH8RtNPnBw-VqSM-25" value="" style="endArrow=none;html=1;rounded=0;exitX=0.996;exitY=0.423;exitDx=0;exitDy=0;exitPerimeter=0;entryX=0;entryY=0.5;entryDx=0;entryDy=0;" edge="1" parent="1" source="JstbfSH8RtNPnBw-VqSM-9" target="JstbfSH8RtNPnBw-VqSM-5">
          <mxGeometry width="50" height="50" relative="1" as="geometry">
            <mxPoint x="263" y="320" as="sourcePoint" />
            <mxPoint x="313" y="270" as="targetPoint" />
          </mxGeometry>
        </mxCell>
        <mxCell id="JstbfSH8RtNPnBw-VqSM-26" value="Chef_cuisiniers_Restaurants" style="swimlane;whiteSpace=wrap;html=1;" vertex="1" parent="1">
          <mxGeometry x="153" y="245" width="190" height="100" as="geometry" />
        </mxCell>
        <mxCell id="JstbfSH8RtNPnBw-VqSM-27" value="&lt;b&gt;&lt;u&gt;#id_Chef_cuisiniers&lt;/u&gt;&lt;/b&gt;" style="text;html=1;align=center;verticalAlign=middle;resizable=0;points=[];autosize=1;strokeColor=none;fillColor=none;" vertex="1" parent="JstbfSH8RtNPnBw-VqSM-26">
          <mxGeometry x="25" y="25" width="140" height="30" as="geometry" />
        </mxCell>
        <mxCell id="JstbfSH8RtNPnBw-VqSM-28" value="&lt;b&gt;&lt;u&gt;#id_Restaurants&lt;/u&gt;&lt;/b&gt;" style="text;html=1;align=center;verticalAlign=middle;resizable=0;points=[];autosize=1;strokeColor=none;fillColor=none;" vertex="1" parent="JstbfSH8RtNPnBw-VqSM-26">
          <mxGeometry x="35" y="45" width="120" height="30" as="geometry" />
        </mxCell>
        <mxCell id="JstbfSH8RtNPnBw-VqSM-29" value="" style="endArrow=none;html=1;rounded=0;entryX=0.5;entryY=0;entryDx=0;entryDy=0;exitX=0.014;exitY=0.721;exitDx=0;exitDy=0;exitPerimeter=0;" edge="1" parent="1" source="JstbfSH8RtNPnBw-VqSM-28" target="JstbfSH8RtNPnBw-VqSM-8">
          <mxGeometry width="50" height="50" relative="1" as="geometry">
            <mxPoint x="113" y="430" as="sourcePoint" />
            <mxPoint x="163" y="380" as="targetPoint" />
          </mxGeometry>
        </mxCell>
        <mxCell id="JstbfSH8RtNPnBw-VqSM-30" value="" style="endArrow=none;html=1;rounded=0;entryX=-0.001;entryY=0.504;entryDx=0;entryDy=0;entryPerimeter=0;exitX=0.5;exitY=1;exitDx=0;exitDy=0;" edge="1" parent="1" source="JstbfSH8RtNPnBw-VqSM-2" target="JstbfSH8RtNPnBw-VqSM-27">
          <mxGeometry width="50" height="50" relative="1" as="geometry">
            <mxPoint x="63" y="330" as="sourcePoint" />
            <mxPoint x="113" y="280" as="targetPoint" />
          </mxGeometry>
        </mxCell>
      </root>
    </mxGraphModel>
  </diagram>
</mxfile>
